# xmcd
#
# Track frame offsets:
#	150
#	26875
#	50358
#	70654
#	90486
#	106532
#	133448
#	157913
#	182428
#	213302
#	228229
#	246012
#
# Disc length: 3551 seconds
#
# Revision: 0
# Processed by: cddbd v1.4PL0 Copyright (c) Steve Scherf et al.
# Submitted via: dBpowerAMP V4.0
#
DISCID=930ddd0c
DTITLE=james - Lonely
DYEAR=2003
DGENRE=Blues
TTITLE0=a
TTITLE1=b
TTITLE2=c
TTITLE3=d
TTITLE4=e
TTITLE5=f
TTITLE6=g
TTITLE7=h
TTITLE8=i
TTITLE9=j
TTITLE10=j
TTITLE11=l
EXTD=Lonely
EXTT0=
EXTT1=
EXTT2=
EXTT3=
EXTT4=
EXTT5=
EXTT6=
EXTT7=
EXTT8=
EXTT9=
EXTT10=
EXTT11=
PLAYORDER=
